<svg width="128" height="128" viewBox="0 0 128 128" fill="none" xmlns="http://www.w3.org/2000/svg">
<path fill-rule="evenodd" clip-rule="evenodd" d="M128 64C128 99.3462 99.3462 128 64 128C28.6538 128 0 99.3462 0 64C0 28.6538 28.6538 0 64 0C99.3462 0 128 28.6538 128 64ZM74.827 12.0876C85.0556 22.8666 78.8766 45.3373 61.0256 62.2772C43.1745 79.2175 20.4112 84.2116 10.1824 73.4327C-0.0465409 62.6535 6.13249 40.1828 23.9836 23.2428C41.8347 6.30288 64.598 1.3085 74.827 12.0876ZM117.428 53.7799C127.657 64.559 121.478 87.0298 103.627 103.969C85.7757 120.91 63.0126 125.904 52.7837 115.125C42.5548 104.346 48.7339 81.8749 66.585 64.9352C84.4363 47.9953 107.2 43.0009 117.428 53.7799Z" fill="white"/>
</svg>
